<svg xmlns="http://www.w3.org/2000/svg" xmlns:xlink="http://www.w3.org/1999/xlink" width="500" zoomAndPan="magnify" viewBox="0 0 375 374.999991" height="500" preserveAspectRatio="xMidYMid meet" version="1.2"><defs><clipPath id="02eeea1bda"><path d="M 225 100.371094 L 337.5 100.371094 L 337.5 215.507812 L 225 215.507812 Z M 225 100.371094 "/></clipPath><clipPath id="06f31263b2"><path d="M 281.25 100.371094 L 337.5 215.167969 L 225 215.167969 Z M 281.25 100.371094 "/></clipPath></defs><g id="ff2b557d9f"><g clip-rule="nonzero" clip-path="url(#02eeea1bda)"><g clip-rule="nonzero" clip-path="url(#06f31263b2)"><path style=" stroke:none;fill-rule:nonzero;fill:#ffbd59;fill-opacity:1;" d="M 225 100.371094 L 337.5 100.371094 L 337.5 215.066406 L 225 215.066406 Z M 225 100.371094 "/></g></g><g style="fill:#000000;fill-opacity:1;"><g transform="translate(93.179156, 149.603791)"><path style="stroke:none" d="M 30.8125 -58.4375 C 36.09375 -58.4375 40.179688 -56.847656 43.078125 -53.671875 C 45.972656 -50.503906 47.421875 -46.332031 47.421875 -41.15625 C 47.421875 -35.925781 45.972656 -31.707031 43.078125 -28.5 C 40.179688 -25.300781 36.09375 -23.703125 30.8125 -23.703125 L 22.796875 -23.703125 L 22.796875 -2.34375 L 26.875 -2.34375 C 27.65625 -2.34375 28.046875 -1.953125 28.046875 -1.171875 C 28.046875 -0.390625 27.65625 0 26.875 0 L 5.765625 0 C 4.984375 0 4.59375 -0.390625 4.59375 -1.171875 C 4.59375 -1.953125 4.984375 -2.34375 5.765625 -2.34375 L 9.765625 -2.34375 L 9.765625 -56.09375 L 6.515625 -56.09375 C 5.679688 -56.09375 5.265625 -56.457031 5.265625 -57.1875 C 5.265625 -58.019531 5.679688 -58.4375 6.515625 -58.4375 Z M 20.28125 -2.34375 L 20.28125 -56.09375 L 12.265625 -56.09375 L 12.265625 -2.34375 Z M 30.8125 -26.046875 C 31.414062 -26.046875 32.007812 -26.070312 32.59375 -26.125 C 33.1875 -26.1875 33.757812 -26.269531 34.3125 -26.375 L 34.3125 -55.765625 C 33.757812 -55.878906 33.1875 -55.960938 32.59375 -56.015625 C 32.007812 -56.066406 31.414062 -56.09375 30.8125 -56.09375 L 22.796875 -56.09375 L 22.796875 -26.046875 Z M 36.8125 -27.125 C 39.425781 -28.1875 41.429688 -29.941406 42.828125 -32.390625 C 44.222656 -34.835938 44.921875 -37.757812 44.921875 -41.15625 C 44.921875 -44.5 44.222656 -47.378906 42.828125 -49.796875 C 41.429688 -52.222656 39.425781 -53.960938 36.8125 -55.015625 Z M 36.8125 -27.125 "/></g></g><g style="fill:#000000;fill-opacity:1;"><g transform="translate(141.849096, 149.603791)"><path style="stroke:none" d="M 32.8125 -59.78125 C 38.875 -59.78125 44.160156 -58.5 48.671875 -55.9375 C 53.179688 -53.375 56.703125 -49.8125 59.234375 -45.25 C 61.765625 -40.6875 63.03125 -35.34375 63.03125 -29.21875 C 63.03125 -23.15625 61.765625 -17.835938 59.234375 -13.265625 C 56.703125 -8.703125 53.179688 -5.140625 48.671875 -2.578125 C 44.160156 -0.0234375 38.875 1.25 32.8125 1.25 C 26.738281 1.25 21.4375 -0.0234375 16.90625 -2.578125 C 12.375 -5.140625 8.835938 -8.703125 6.296875 -13.265625 C 3.765625 -17.835938 2.5 -23.15625 2.5 -29.21875 C 2.5 -35.34375 3.765625 -40.6875 6.296875 -45.25 C 8.835938 -49.8125 12.375 -53.375 16.90625 -55.9375 C 21.4375 -58.5 26.738281 -59.78125 32.8125 -59.78125 Z M 17.859375 -4.765625 C 19.972656 -3.585938 22.28125 -2.675781 24.78125 -2.03125 C 27.289062 -1.394531 29.96875 -1.078125 32.8125 -1.078125 C 35.644531 -1.078125 38.3125 -1.394531 40.8125 -2.03125 C 43.320312 -2.675781 45.609375 -3.585938 47.671875 -4.765625 L 47.671875 -53.765625 C 45.609375 -54.929688 43.320312 -55.832031 40.8125 -56.46875 C 38.3125 -57.113281 35.644531 -57.4375 32.8125 -57.4375 C 29.96875 -57.4375 27.289062 -57.113281 24.78125 -56.46875 C 22.28125 -55.832031 19.972656 -54.929688 17.859375 -53.765625 Z M 4.921875 -29.21875 C 4.921875 -24.269531 5.835938 -19.847656 7.671875 -15.953125 C 9.515625 -12.054688 12.078125 -8.878906 15.359375 -6.421875 L 15.359375 -52.09375 C 12.078125 -49.644531 9.515625 -46.457031 7.671875 -42.53125 C 5.835938 -38.613281 4.921875 -34.175781 4.921875 -29.21875 Z M 50.171875 -6.421875 C 53.453125 -8.878906 56.007812 -12.054688 57.84375 -15.953125 C 59.6875 -19.847656 60.609375 -24.269531 60.609375 -29.21875 C 60.609375 -34.226562 59.6875 -38.691406 57.84375 -42.609375 C 56.007812 -46.535156 53.453125 -49.695312 50.171875 -52.09375 Z M 50.171875 -6.421875 "/></g></g><g style="fill:#000000;fill-opacity:1;"><g transform="translate(207.382379, 149.603791)"><path style="stroke:none" d="M 44 -13.4375 C 44.332031 -13.4375 44.625 -13.3125 44.875 -13.0625 C 45.125 -12.8125 45.25 -12.519531 45.25 -12.1875 L 45.25 -1.171875 C 45.25 -0.835938 45.125 -0.554688 44.875 -0.328125 C 44.625 -0.109375 44.359375 0 44.078125 0 L 3.5 0 C 2.445312 0 1.921875 -0.5 1.921875 -1.5 C 1.921875 -1.832031 1.976562 -2.082031 2.09375 -2.25 L 29.46875 -56.09375 L 5.84375 -56.09375 L 5.84375 -47.84375 C 5.84375 -47.5 5.71875 -47.203125 5.46875 -46.953125 C 5.21875 -46.703125 4.925781 -46.578125 4.59375 -46.578125 C 4.257812 -46.578125 3.96875 -46.703125 3.71875 -46.953125 C 3.46875 -47.203125 3.34375 -47.5 3.34375 -47.84375 L 3.34375 -57.265625 C 3.34375 -58.046875 3.734375 -58.4375 4.515625 -58.4375 L 43.828125 -58.4375 C 44.273438 -58.4375 44.609375 -58.238281 44.828125 -57.84375 C 45.054688 -57.457031 45.054688 -57.046875 44.828125 -56.609375 L 17.28125 -2.34375 L 42.75 -2.34375 L 42.75 -12.1875 C 42.75 -12.519531 42.875 -12.8125 43.125 -13.0625 C 43.375 -13.3125 43.664062 -13.4375 44 -13.4375 Z M 4.921875 -2.34375 L 14.4375 -2.34375 L 41.828125 -56.09375 L 32.3125 -56.09375 Z M 4.921875 -2.34375 "/></g></g><g style="fill:#000000;fill-opacity:1;"><g transform="translate(69.999156, 276.321855)"><path style="stroke:none" d="M 43.078125 -13.28125 C 43.910156 -13.28125 44.328125 -12.914062 44.328125 -12.1875 L 44.328125 -1.171875 C 44.328125 -0.390625 43.9375 0 43.15625 0 L 5.765625 0 C 4.984375 0 4.59375 -0.390625 4.59375 -1.171875 C 4.59375 -1.453125 4.703125 -1.71875 4.921875 -1.96875 C 5.148438 -2.21875 5.429688 -2.34375 5.765625 -2.34375 L 9.265625 -2.34375 L 9.265625 -56.09375 L 6.265625 -56.09375 C 5.535156 -56.09375 5.171875 -56.484375 5.171875 -57.265625 C 5.171875 -58.046875 5.535156 -58.4375 6.265625 -58.4375 L 26.46875 -58.4375 C 26.738281 -58.4375 27 -58.320312 27.25 -58.09375 C 27.507812 -57.875 27.640625 -57.597656 27.640625 -57.265625 C 27.640625 -56.929688 27.507812 -56.648438 27.25 -56.421875 C 27 -56.203125 26.738281 -56.09375 26.46875 -56.09375 L 22.296875 -56.09375 L 22.296875 -2.34375 L 41.828125 -2.34375 L 41.828125 -12.1875 C 41.828125 -12.914062 42.242188 -13.28125 43.078125 -13.28125 Z M 11.765625 -2.34375 L 19.78125 -2.34375 L 19.78125 -56.09375 L 11.765625 -56.09375 Z M 11.765625 -2.34375 "/></g></g><g style="fill:#000000;fill-opacity:1;"><g transform="translate(114.661976, 276.321855)"><path style="stroke:none" d="M 28.296875 -2.34375 C 29.078125 -2.34375 29.46875 -1.953125 29.46875 -1.171875 C 29.46875 -0.390625 29.078125 0 28.296875 0 L 5.765625 0 C 4.984375 0 4.59375 -0.390625 4.59375 -1.171875 C 4.59375 -1.953125 4.984375 -2.34375 5.765625 -2.34375 L 10.265625 -2.34375 L 10.265625 -56.09375 L 6.421875 -56.09375 C 5.535156 -56.09375 5.09375 -56.484375 5.09375 -57.265625 C 5.09375 -58.046875 5.535156 -58.4375 6.421875 -58.4375 L 27.46875 -58.4375 C 28.25 -58.4375 28.640625 -58.046875 28.640625 -57.265625 C 28.640625 -56.484375 28.25 -56.09375 27.46875 -56.09375 L 23.296875 -56.09375 L 23.296875 -2.34375 Z M 12.765625 -2.34375 L 20.78125 -2.34375 L 20.78125 -56.09375 L 12.765625 -56.09375 Z M 12.765625 -2.34375 "/></g></g><g style="fill:#000000;fill-opacity:1;"><g transform="translate(148.722598, 276.321855)"><path style="stroke:none" d="M 56.09375 -58.4375 C 56.875 -58.4375 57.265625 -58.046875 57.265625 -57.265625 C 57.265625 -56.484375 56.875 -56.09375 56.09375 -56.09375 L 50.421875 -56.09375 L 50.421875 -1.25 C 50.421875 0.414062 50.03125 1.25 49.25 1.25 C 48.476562 1.25 47.726562 0.722656 47 -0.328125 L 11.1875 -52.015625 L 11.1875 -2.34375 L 18.78125 -2.34375 C 19.613281 -2.34375 20.03125 -1.953125 20.03125 -1.171875 C 20.03125 -0.390625 19.613281 0 18.78125 0 L 3.421875 0 C 3.140625 0 2.875 -0.09375 2.625 -0.28125 C 2.375 -0.476562 2.25 -0.773438 2.25 -1.171875 C 2.25 -1.503906 2.375 -1.78125 2.625 -2 C 2.875 -2.226562 3.140625 -2.34375 3.421875 -2.34375 L 8.6875 -2.34375 L 8.6875 -56.09375 L 4.09375 -56.09375 C 3.363281 -56.09375 3 -56.484375 3 -57.265625 C 3 -58.046875 3.363281 -58.4375 4.09375 -58.4375 L 21.953125 -58.4375 C 22.285156 -58.4375 22.535156 -58.328125 22.703125 -58.109375 L 47.921875 -21.625 L 47.921875 -56.09375 L 42.40625 -56.09375 C 41.570312 -56.09375 41.15625 -56.484375 41.15625 -57.265625 C 41.15625 -58.046875 41.570312 -58.4375 42.40625 -58.4375 Z M 47.921875 -3.34375 L 47.921875 -17.359375 L 21.125 -56.09375 L 11.359375 -56.09375 Z M 47.921875 -3.34375 "/></g></g><g style="fill:#000000;fill-opacity:1;"><g transform="translate(208.24519, 276.321855)"><path style="stroke:none" d="M 28.296875 -2.34375 C 29.078125 -2.34375 29.46875 -1.953125 29.46875 -1.171875 C 29.46875 -0.390625 29.078125 0 28.296875 0 L 5.765625 0 C 4.984375 0 4.59375 -0.390625 4.59375 -1.171875 C 4.59375 -1.953125 4.984375 -2.34375 5.765625 -2.34375 L 10.265625 -2.34375 L 10.265625 -56.09375 L 6.421875 -56.09375 C 5.535156 -56.09375 5.09375 -56.484375 5.09375 -57.265625 C 5.09375 -58.046875 5.535156 -58.4375 6.421875 -58.4375 L 27.46875 -58.4375 C 28.25 -58.4375 28.640625 -58.046875 28.640625 -57.265625 C 28.640625 -56.484375 28.25 -56.09375 27.46875 -56.09375 L 23.296875 -56.09375 L 23.296875 -2.34375 Z M 12.765625 -2.34375 L 20.78125 -2.34375 L 20.78125 -56.09375 L 12.765625 -56.09375 Z M 12.765625 -2.34375 "/></g></g><g style="fill:#000000;fill-opacity:1;"><g transform="translate(242.305812, 276.321855)"><path style="stroke:none" d="M 58.609375 -2.34375 C 58.890625 -2.34375 59.140625 -2.21875 59.359375 -1.96875 C 59.578125 -1.71875 59.6875 -1.453125 59.6875 -1.171875 C 59.6875 -0.390625 59.328125 0 58.609375 0 L 50.34375 0 C 49.0625 0.882812 47.878906 1.925781 46.796875 3.125 C 45.710938 4.320312 44.847656 5.53125 44.203125 6.75 C 43.566406 7.976562 43.25 9.039062 43.25 9.9375 C 43.25 11.320312 43.707031 12.488281 44.625 13.4375 C 45.539062 14.382812 46.695312 14.859375 48.09375 14.859375 C 48.8125 14.859375 49.628906 14.617188 50.546875 14.140625 C 51.460938 13.671875 52.867188 12.710938 54.765625 11.265625 C 55.429688 10.765625 56.046875 10.820312 56.609375 11.4375 C 57.160156 12.050781 57.078125 12.632812 56.359375 13.1875 C 54.347656 14.6875 52.742188 15.753906 51.546875 16.390625 C 50.347656 17.035156 49.195312 17.359375 48.09375 17.359375 C 46.03125 17.359375 44.285156 16.632812 42.859375 15.1875 C 41.441406 13.75 40.734375 12 40.734375 9.9375 C 40.734375 8.65625 41.21875 7.09375 42.1875 5.25 C 43.164062 3.414062 44.546875 1.664062 46.328125 0 L 37.15625 0 C 36.425781 0 36.0625 -0.390625 36.0625 -1.171875 C 36.0625 -1.453125 36.171875 -1.71875 36.390625 -1.96875 C 36.617188 -2.21875 36.875 -2.34375 37.15625 -2.34375 L 41.828125 -2.34375 L 37.40625 -16.53125 L 13.1875 -16.53125 L 8.59375 -2.34375 L 14.1875 -2.34375 C 14.46875 -2.34375 14.71875 -2.21875 14.9375 -1.96875 C 15.164062 -1.71875 15.28125 -1.453125 15.28125 -1.171875 C 15.28125 -0.390625 14.914062 0 14.1875 0 L 1.328125 0 C 0.609375 0 0.25 -0.390625 0.25 -1.171875 C 0.25 -1.453125 0.359375 -1.71875 0.578125 -1.96875 C 0.804688 -2.21875 1.054688 -2.34375 1.328125 -2.34375 L 6.015625 -2.34375 L 23.375 -56.09375 L 18.53125 -56.09375 C 17.8125 -56.09375 17.453125 -56.484375 17.453125 -57.265625 C 17.453125 -58.046875 17.8125 -58.4375 18.53125 -58.4375 L 36.8125 -58.4375 C 37.539062 -58.4375 38.015625 -58.078125 38.234375 -57.359375 L 55.1875 -2.34375 Z M 52.59375 -2.34375 L 36.0625 -56.09375 L 27.890625 -56.09375 L 44.40625 -2.34375 Z M 36.734375 -18.875 L 25.625 -54.84375 L 13.9375 -18.875 Z M 36.734375 -18.875 "/></g></g><g style="fill:#000000;fill-opacity:1;"><g transform="translate(222.797032, 220.620491)"><path style="stroke:none" d="M 26.359375 -8.796875 L 85.890625 -16.109375 L 37.609375 -99.71875 L 9.328125 -1.140625 L 3.46875 -0.421875 L 35.875 -113.78125 L 94.78125 -11.65625 L 27.03125 -3.328125 Z M 26.359375 -8.796875 "/></g></g></g></svg>